<svg version="1.1" id="Layer_1" xmlns="http://www.w3.org/2000/svg" xmlns:xlink="http://www.w3.org/1999/xlink" x="0px" y="0px"
	 width="100%" viewBox="0 0 478 111" enable-background="new 0 0 478 111" xml:space="preserve">
<path fill="#FDFDFE" opacity="0.000000" stroke="none" 
	d="
M479.000000,109.000000 
	C479.000000,109.998962 479.000000,110.997932 479.000000,111.998444 
	C320.998260,112.000000 162.996521,112.002457 4.994781,111.958649 
	C3.663101,111.958275 2.331592,111.333328 1.448971,110.353111 
	C17.216419,109.693504 32.546246,110.022980 47.848312,109.515480 
	C54.897636,109.281670 62.126156,108.167130 68.854424,106.092842 
	C77.695473,103.367195 82.261353,95.783653 81.662750,87.445808 
	C81.124977,79.955124 75.723106,74.555923 66.627113,72.385818 
	C64.884331,71.970016 63.160461,71.474915 60.580048,70.792030 
	C63.957848,68.982986 66.694954,67.788406 69.136307,66.152458 
	C74.049881,62.859871 77.758408,58.634029 77.102654,52.203846 
	C76.436333,45.669975 72.136284,42.036560 66.132233,40.879513 
	C59.641254,39.628632 53.007187,38.703266 46.409595,38.506821 
	C31.281446,38.056377 16.137522,38.135735 1.000000,38.000000 
	C1.000000,25.698116 1.000000,13.396232 1.000000,1.000000 
	C45.687519,1.000000 90.375099,1.000000 135.364700,1.331213 
	C132.701370,2.798951 129.736023,3.935476 126.770676,5.072001 
	C126.856728,5.325726 126.942780,5.579450 127.028831,5.833174 
	C136.029373,5.833174 145.029907,5.833174 155.532562,5.833174 
	C151.088257,3.793772 148.044128,2.396887 145.000000,1.000001 
	C256.220764,1.000000 367.441528,1.000000 479.000000,1.000000 
	C479.000000,33.686787 479.000000,66.374733 478.578857,99.720001 
	C458.770081,100.377327 439.382477,100.377327 420.093231,100.377327 
	C420.093231,91.349754 420.093231,82.130363 420.093231,72.535629 
	C438.086151,72.535629 455.680969,72.535629 473.342987,72.535629 
	C473.342987,70.115402 473.342987,68.092667 473.342987,66.049866 
	C455.397919,66.049866 437.803131,66.049866 420.117706,66.049866 
	C420.117706,58.434231 420.117706,51.082771 420.117706,43.980808 
	C439.127655,43.980808 457.710388,43.980808 476.304596,43.980808 
	C476.304596,41.898941 476.304596,39.699207 476.304596,37.613960 
	C452.661896,37.613960 429.407715,37.613960 405.972290,37.613960 
	C405.972290,61.348949 405.972290,84.777527 405.972290,108.692085 
	C409.345886,108.692085 412.465759,108.679543 415.585510,108.694115 
	C436.723663,108.792885 457.861847,108.897362 479.000000,109.000000 
M197.862564,86.499924 
	C197.862564,93.760857 197.862564,101.021790 197.862564,108.528229 
	C201.428833,108.528229 204.332428,108.528229 207.959366,108.528229 
	C207.959366,91.233345 207.959366,74.100166 207.959366,56.231270 
	C210.135208,57.771496 211.513428,58.667267 212.805466,59.673683 
	C232.744003,75.204597 252.665298,90.757622 272.608398,106.282677 
	C275.307465,108.383820 277.917542,110.981293 281.892700,109.135201 
	C281.892700,85.683388 281.892700,62.312172 281.892700,39.039474 
	C278.728882,39.039474 275.952332,39.039474 272.418610,39.039474 
	C272.418610,55.538757 272.418610,71.809372 272.418610,88.896858 
	C270.839905,87.806862 270.159180,87.377640 269.522156,86.891113 
	C249.437622,71.551682 229.447571,56.085346 209.172272,41.002476 
	C206.356918,38.908127 202.137268,38.701485 197.862549,37.407509 
	C197.862549,54.541157 197.862549,70.020546 197.862564,86.499924 
M305.410828,95.072716 
	C311.774353,101.586296 319.562134,105.637871 328.360718,107.470657 
	C348.105591,111.583656 367.708710,109.794640 387.152802,105.262871 
	C388.281311,104.999855 389.964752,103.565109 389.984619,102.645248 
	C390.192474,93.033272 390.112885,83.415070 390.112885,73.329102 
	C381.858826,73.329102 374.116699,73.329102 366.153564,73.329102 
	C366.153564,75.187027 366.153564,77.227394 366.153564,79.362869 
	C369.541565,79.362869 372.626709,79.362869 376.419342,79.362869 
	C376.419342,85.501747 376.219971,91.463707 376.502167,97.402786 
	C376.646515,100.440094 375.278625,101.631294 372.735840,102.194572 
	C359.381287,105.152832 346.033875,105.896736 332.882660,101.326363 
	C319.131287,96.547432 312.496338,86.813042 312.616516,72.129166 
	C312.727570,58.560741 320.000336,48.554359 333.253418,44.144604 
	C343.725922,40.660030 354.583923,39.845634 365.243958,42.384842 
	C372.650391,44.149036 379.653046,47.608280 387.139801,50.424469 
	C388.094208,48.088226 389.324646,45.076317 391.139282,40.634449 
	C381.386261,39.011932 372.346008,37.083908 363.204224,36.083752 
	C348.456116,34.470242 333.993530,35.994343 320.112946,41.703854 
	C296.790741,51.296974 289.952362,74.997932 305.410828,95.072716 
M133.606171,110.680626 
	C143.155502,111.071220 152.526901,110.358688 161.534119,106.738800 
	C168.935364,103.764336 174.852539,99.138123 177.970001,91.701546 
	C179.352936,88.402611 180.396851,84.700073 180.467163,81.158348 
	C180.746918,67.065811 180.582382,52.964451 180.582382,39.041431 
	C177.113907,39.041431 174.201324,39.041431 170.884766,39.041431 
	C170.884766,41.351952 170.908249,43.321980 170.880951,45.291309 
	C170.703369,58.101913 170.738022,70.921120 170.236099,83.719193 
	C169.982941,90.174561 166.851044,95.725105 161.259842,99.049995 
	C147.737076,107.091515 133.565460,106.254143 119.710541,100.246269 
	C114.379494,97.934586 111.454056,92.629204 110.653427,86.673401 
	C110.145531,82.895157 109.760147,79.071396 109.723663,75.264183 
	C109.607590,63.148861 109.680679,51.031723 109.680679,38.882668 
	C105.029083,38.882668 100.830452,38.882668 96.346565,38.882668 
	C96.346565,54.559410 95.983253,70.030632 96.496857,85.472679 
	C96.761345,93.424683 100.482590,100.132996 107.822945,104.302971 
	C115.535118,108.684151 123.850075,110.586296 133.606171,110.680626 
M125.626396,43.759865 
	C136.921387,43.759846 148.219482,43.608181 159.509705,43.840179 
	C163.587326,43.923965 165.022339,42.125446 165.415192,38.583702 
	C148.645630,38.583702 132.153748,38.583702 115.610779,38.583702 
	C116.344185,44.876400 120.850319,43.685173 125.626396,43.759865 
M137.500122,18.761808 
	C146.732132,18.761808 155.964127,18.761808 165.383209,18.761808 
	C164.572632,14.519493 162.706894,13.050436 158.727158,13.138515 
	C146.402390,13.411281 134.065247,13.378599 121.738426,13.156860 
	C117.814758,13.086279 116.473923,14.875852 115.830391,18.761702 
	C122.956474,18.761702 129.728333,18.761702 137.500122,18.761808 
M129.502686,31.123379 
	C142.094009,31.123379 154.685349,31.123379 167.371094,31.123379 
	C167.371094,29.086500 167.371094,27.676504 167.371094,26.029316 
	C149.374741,26.029316 131.643692,26.029316 113.714088,26.029316 
	C113.714088,27.795666 113.714088,29.322830 113.714088,31.123392 
	C118.876122,31.123392 123.690430,31.123392 129.502686,31.123379 
M133.660034,50.573490 
	C131.081192,50.573490 128.502365,50.573490 125.102898,50.573490 
	C134.657455,57.609333 148.009323,57.497196 155.304550,50.573792 
	C148.139328,50.573792 141.378250,50.573792 133.660034,50.573490 
z"/>
<path fill="#0B478B" opacity="1.000000" stroke="none" 
	d="
M1.000000,38.468658 
	C16.137522,38.135735 31.281446,38.056377 46.409595,38.506821 
	C53.007187,38.703266 59.641254,39.628632 66.132233,40.879513 
	C72.136284,42.036560 76.436333,45.669975 77.102654,52.203846 
	C77.758408,58.634029 74.049881,62.859871 69.136307,66.152458 
	C66.694954,67.788406 63.957848,68.982986 60.580048,70.792030 
	C63.160461,71.474915 64.884331,71.970016 66.627113,72.385818 
	C75.723106,74.555923 81.124977,79.955124 81.662750,87.445808 
	C82.261353,95.783653 77.695473,103.367195 68.854424,106.092842 
	C62.126156,108.167130 54.897636,109.281670 47.848312,109.515480 
	C32.546246,110.022980 17.216419,109.693504 1.448970,109.853119 
	C1.000000,86.312439 1.000000,62.624878 1.000000,38.468658 
M57.482937,101.375572 
	C58.084709,101.096436 58.702480,100.847061 59.285793,100.533577 
	C65.494255,97.197029 68.181122,92.695984 67.287552,86.472092 
	C66.419395,80.425255 62.366272,77.474892 56.699265,76.098541 
	C43.919586,72.994728 31.042610,74.386490 17.950756,74.484261 
	C17.950756,84.422722 17.950756,93.800903 17.950756,104.484573 
	C31.133768,103.557060 43.952534,102.655174 57.482937,101.375572 
M50.045921,45.283127 
	C39.430206,45.283127 28.814489,45.283127 17.858160,45.283127 
	C17.858160,53.204021 17.858160,60.572086 17.858160,68.898499 
	C28.994019,68.262070 39.799488,68.121948 50.456974,66.794098 
	C54.564335,66.282349 59.021980,63.803646 62.099964,60.919201 
	C66.813126,56.502396 65.096687,49.575260 59.146690,46.983734 
	C56.644096,45.893730 53.696304,45.825886 50.045921,45.283127 
z"/>
<path fill="#124C8E" opacity="1.000000" stroke="none" 
	d="
M479.000000,108.550018 
	C457.861847,108.897362 436.723663,108.792885 415.585510,108.694115 
	C412.465759,108.679543 409.345886,108.692085 405.972290,108.692085 
	C405.972290,84.777527 405.972290,61.348949 405.972290,37.613960 
	C429.407715,37.613960 452.661896,37.613960 476.304596,37.613960 
	C476.304596,39.699207 476.304596,41.898941 476.304596,43.980808 
	C457.710388,43.980808 439.127655,43.980808 420.117706,43.980808 
	C420.117706,51.082771 420.117706,58.434231 420.117706,66.049866 
	C437.803131,66.049866 455.397919,66.049866 473.342987,66.049866 
	C473.342987,68.092667 473.342987,70.115402 473.342987,72.535629 
	C455.680969,72.535629 438.086151,72.535629 420.093231,72.535629 
	C420.093231,82.130363 420.093231,91.349754 420.093231,100.377327 
	C439.382477,100.377327 458.770081,100.377327 478.578857,100.188660 
	C479.000000,102.700012 479.000000,105.400032 479.000000,108.550018 
z"/>
<path fill="#0E498C" opacity="1.000000" stroke="none" 
	d="
M144.550018,1.000001 
	C148.044128,2.396887 151.088257,3.793772 155.532562,5.833174 
	C145.029907,5.833174 136.029373,5.833174 127.028831,5.833174 
	C126.942780,5.579450 126.856728,5.325726 126.770676,5.072001 
	C129.736023,3.935476 132.701370,2.798951 135.833359,1.331213 
	C138.700012,1.000000 141.400024,1.000000 144.550018,1.000001 
z"/>
<path fill="#064489" opacity="1.000000" stroke="none" 
	d="
M197.862549,85.999931 
	C197.862549,70.020546 197.862549,54.541157 197.862549,37.407509 
	C202.137268,38.701485 206.356918,38.908127 209.172272,41.002476 
	C229.447571,56.085346 249.437622,71.551682 269.522156,86.891113 
	C270.159180,87.377640 270.839905,87.806862 272.418610,88.896858 
	C272.418610,71.809372 272.418610,55.538757 272.418610,39.039474 
	C275.952332,39.039474 278.728882,39.039474 281.892700,39.039474 
	C281.892700,62.312172 281.892700,85.683388 281.892700,109.135201 
	C277.917542,110.981293 275.307465,108.383820 272.608398,106.282677 
	C252.665298,90.757622 232.744003,75.204597 212.805466,59.673683 
	C211.513428,58.667267 210.135208,57.771496 207.959366,56.231270 
	C207.959366,74.100166 207.959366,91.233345 207.959366,108.528229 
	C204.332428,108.528229 201.428833,108.528229 197.862564,108.528229 
	C197.862564,101.021790 197.862564,93.760857 197.862549,85.999931 
z"/>
<path fill="#0D498C" opacity="1.000000" stroke="none" 
	d="
M305.170563,94.810776 
	C289.952362,74.997932 296.790741,51.296974 320.112946,41.703854 
	C333.993530,35.994343 348.456116,34.470242 363.204224,36.083752 
	C372.346008,37.083908 381.386261,39.011932 391.139282,40.634449 
	C389.324646,45.076317 388.094208,48.088226 387.139801,50.424469 
	C379.653046,47.608280 372.650391,44.149036 365.243958,42.384842 
	C354.583923,39.845634 343.725922,40.660030 333.253418,44.144604 
	C320.000336,48.554359 312.727570,58.560741 312.616516,72.129166 
	C312.496338,86.813042 319.131287,96.547432 332.882660,101.326363 
	C346.033875,105.896736 359.381287,105.152832 372.735840,102.194572 
	C375.278625,101.631294 376.646515,100.440094 376.502167,97.402786 
	C376.219971,91.463707 376.419342,85.501747 376.419342,79.362869 
	C372.626709,79.362869 369.541565,79.362869 366.153564,79.362869 
	C366.153564,77.227394 366.153564,75.187027 366.153564,73.329102 
	C374.116699,73.329102 381.858826,73.329102 390.112885,73.329102 
	C390.112885,83.415070 390.192474,93.033272 389.984619,102.645248 
	C389.964752,103.565109 388.281311,104.999855 387.152802,105.262871 
	C367.708710,109.794640 348.105591,111.583656 328.360718,107.470657 
	C319.562134,105.637871 311.774353,101.586296 305.170563,94.810776 
z"/>
<path fill="#0E4A8D" opacity="1.000000" stroke="none" 
	d="
M133.126282,110.680489 
	C123.850075,110.586296 115.535118,108.684151 107.822945,104.302971 
	C100.482590,100.132996 96.761345,93.424683 96.496857,85.472679 
	C95.983253,70.030632 96.346565,54.559410 96.346565,38.882668 
	C100.830452,38.882668 105.029083,38.882668 109.680679,38.882668 
	C109.680679,51.031723 109.607590,63.148861 109.723663,75.264183 
	C109.760147,79.071396 110.145531,82.895157 110.653427,86.673401 
	C111.454056,92.629204 114.379494,97.934586 119.710541,100.246269 
	C133.565460,106.254143 147.737076,107.091515 161.259842,99.049995 
	C166.851044,95.725105 169.982941,90.174561 170.236099,83.719193 
	C170.738022,70.921120 170.703369,58.101913 170.880951,45.291309 
	C170.908249,43.321980 170.884766,41.351952 170.884766,39.041431 
	C174.201324,39.041431 177.113907,39.041431 180.582382,39.041431 
	C180.582382,52.964451 180.746918,67.065811 180.467163,81.158348 
	C180.396851,84.700073 179.352936,88.402611 177.970001,91.701546 
	C174.852539,99.138123 168.935364,103.764336 161.534119,106.738800 
	C152.526901,110.358688 143.155502,111.071220 133.126282,110.680489 
z"/>
<path fill="#255B97" opacity="1.000000" stroke="none" 
	d="
M125.151962,43.759808 
	C120.850319,43.685173 116.344185,44.876400 115.610779,38.583702 
	C132.153748,38.583702 148.645630,38.583702 165.415192,38.583702 
	C165.022339,42.125446 163.587326,43.923965 159.509705,43.840179 
	C148.219482,43.608181 136.921387,43.759846 125.151962,43.759808 
z"/>
<path fill="#265B98" opacity="1.000000" stroke="none" 
	d="
M137.000153,18.761755 
	C129.728333,18.761702 122.956474,18.761702 115.830391,18.761702 
	C116.473923,14.875852 117.814758,13.086279 121.738426,13.156860 
	C134.065247,13.378599 146.402390,13.411281 158.727158,13.138515 
	C162.706894,13.050436 164.572632,14.519493 165.383209,18.761808 
	C155.964127,18.761808 146.732132,18.761808 137.000153,18.761755 
z"/>
<path fill="#044288" opacity="1.000000" stroke="none" 
	d="
M129.003723,31.123386 
	C123.690430,31.123392 118.876122,31.123392 113.714088,31.123392 
	C113.714088,29.322830 113.714088,27.795666 113.714088,26.029316 
	C131.643692,26.029316 149.374741,26.029316 167.371094,26.029316 
	C167.371094,27.676504 167.371094,29.086500 167.371094,31.123379 
	C154.685349,31.123379 142.094009,31.123379 129.003723,31.123386 
z"/>
<path fill="#144E90" opacity="1.000000" stroke="none" 
	d="
M134.138611,50.573639 
	C141.378250,50.573792 148.139328,50.573792 155.304550,50.573792 
	C148.009323,57.497196 134.657455,57.609333 125.102898,50.573490 
	C128.502365,50.573490 131.081192,50.573490 134.138611,50.573639 
z"/>
<path fill="#FAFBFD" opacity="0.000000" stroke="none" 
	d="
M57.127117,101.564430 
	C43.952534,102.655174 31.133768,103.557060 17.950756,104.484573 
	C17.950756,93.800903 17.950756,84.422722 17.950756,74.484261 
	C31.042610,74.386490 43.919586,72.994728 56.699265,76.098541 
	C62.366272,77.474892 66.419395,80.425255 67.287552,86.472092 
	C68.181122,92.695984 65.494255,97.197029 59.285793,100.533577 
	C58.702480,100.847061 58.084709,101.096436 57.127117,101.564430 
z"/>
<path fill="#FAFBFC" opacity="0.000000" stroke="none" 
	d="
M50.498405,45.288250 
	C53.696304,45.825886 56.644096,45.893730 59.146690,46.983734 
	C65.096687,49.575260 66.813126,56.502396 62.099964,60.919201 
	C59.021980,63.803646 54.564335,66.282349 50.456974,66.794098 
	C39.799488,68.121948 28.994019,68.262070 17.858160,68.898499 
	C17.858160,60.572086 17.858160,53.204021 17.858160,45.283127 
	C28.814489,45.283127 39.430206,45.283127 50.498405,45.288250 
z"/>
</svg>